<svg xmlns="http://www.w3.org/2000/svg" xmlns:xlink="http://www.w3.org/1999/xlink" viewBox="0 0 221.22 143.81"><defs><style>.a{fill:url(#a);}.b{fill:url(#b);}.c{fill:url(#c);}</style><linearGradient id="a" x1="1048.48" y1="1323.67" x2="1405.06" y2="1589.92" gradientUnits="userSpaceOnUse"><stop offset="0.06" stop-color="#ed1c24"/><stop offset="1" stop-color="#2e3192"/></linearGradient><linearGradient id="b" x1="1089.4" y1="1268.88" x2="1445.98" y2="1535.12" gradientUnits="userSpaceOnUse"><stop offset="0" stop-color="#ed1c24"/><stop offset="1" stop-color="#2e3192"/></linearGradient><linearGradient id="c" x1="1049.27" y1="1322.62" x2="1405.85" y2="1588.87" xlink:href="#b"/></defs><path class="a" d="M1135.89,1303.36a38.72,38.72,0,0,0-3.91-7.23,18.11,18.11,0,0,0-6.08-5.49,18.82,18.82,0,0,0-9.41-2.14,18.58,18.58,0,0,0-9.31,2.14,17.71,17.71,0,0,0-6.09,5.59,44.74,44.74,0,0,0-4.36,8.67q-2.06,5.24-3.5,9l-34.08,86.51q-2.09,5.18-3,8.08a18.76,18.76,0,0,0-.92,5.63,11.44,11.44,0,0,0,3.91,8.46,12.69,12.69,0,0,0,9,3.72q6,0,8.63-3.49t6.36-13.5l6.36-17.08h54.16l6.36,16.72c.85,2,1.85,4.4,3,7.07a10.83,10.83,0,0,1-.17-1.9,18.74,18.74,0,0,1,.91-5.63q.92-2.91,3-8.08l9-22.85-25.84-63.85Q1137.48,1307.22,1135.89,1303.36Zm-39.3,68.56,19.72-55,20.08,55Z" transform="translate(-1055.24 -1288.5)"/><path class="b" d="M1272.37,1399.64l-34.81-86q-2.44-6.45-4-10.31a38.72,38.72,0,0,0-3.91-7.23,18.11,18.11,0,0,0-6.08-5.49,18.82,18.82,0,0,0-9.41-2.14,18.56,18.56,0,0,0-9.31,2.14,17.62,17.62,0,0,0-6.09,5.59,45.29,45.29,0,0,0-4.37,8.67q-2,5.24-3.49,9l-25.08,63.66,9,22.12q4.1,9.81,4.09,14.26c0,.11,0,.23,0,.34.62-1.5,1.27-3.15,2-5l6.36-17.08h54.16l6.36,16.72c.85,2.06,1.87,4.43,3,7.13a28.25,28.25,0,0,0,3.31,6,11.28,11.28,0,0,0,3.82,3.09,12.15,12.15,0,0,0,5.45,1.13,12.72,12.72,0,0,0,9.32-3.86,11.84,11.84,0,0,0,3.86-8.5Q1276.46,1409.46,1272.37,1399.64Zm-78.15-27.72,19.72-55,20.08,55Z" transform="translate(-1055.24 -1288.5)"/><path class="c" d="M1165.72,1383.57l-9,22.85q-2.09,5.17-3,8.09a18.94,18.94,0,0,0-.9,5.63,11.76,11.76,0,0,0,.16,1.89,11.93,11.93,0,0,0,3.74,6.56l.16.14a11.14,11.14,0,0,0,3.26,2.45,12.09,12.09,0,0,0,5.46,1.14h.12a12.67,12.67,0,0,0,8.13-2.9,13.67,13.67,0,0,0,1.06-1,11.84,11.84,0,0,0,3.85-8.16c0-.11,0-.22,0-.33q0-4.45-4.09-14.27Z" transform="translate(-1055.24 -1288.5)"/></svg>